<?xml version="1.0" encoding="UTF-8"?>
<svg width="243.55pt" height="243.55pt" version="1.1" viewBox="0 0 243.55 243.55" xmlns="http://www.w3.org/2000/svg">
 <path d="m104.65 0-8.2461 29.598c-7.6914 2.1172-14.992 5.2305-21.777 9.0898l-27.062-15.012-23.891 23.891 15.012 27.062c-3.8594 6.7852-6.9727 14.086-9.0898 21.777l-29.598 8.2461v34.25l29.598 8.2461c2.1172 7.6914 5.2305 14.992 9.0898 21.777l-15.012 27.062 23.891 23.891 27.062-15.012c6.7852 3.8594 14.086 6.9727 21.777 9.0898l8.2461 29.598h34.25l8.2461-29.598c7.6914-2.1172 14.992-5.2305 21.777-9.0898l27.062 15.012 23.891-23.891-15.012-27.062c3.8594-6.7812 6.9727-14.086 9.0898-21.777l29.598-8.2461v-34.25l-29.598-8.2461c-2.1172-7.6914-5.2305-14.992-9.0898-21.777l15.012-27.062-23.891-23.891-27.062 15.012c-6.7852-3.8594-14.086-6.9727-21.777-9.0898l-8.2461-29.598zm17.125 74.418c26.156 0 47.359 21.203 47.359 47.359s-21.203 47.359-47.359 47.359-47.359-21.203-47.359-47.359 21.203-47.359 47.359-47.359z" fill="#bbbbbf"/>
</svg>
